<?xml version="1.0" encoding="UTF-8" standalone="no"?><!DOCTYPE svg PUBLIC "-//W3C//DTD SVG 1.1//EN" "http://www.w3.org/Graphics/SVG/1.1/DTD/svg11.dtd"><svg width="100%" height="100%" viewBox="0 0 1000 1000" version="1.1" xmlns="http://www.w3.org/2000/svg" xmlns:xlink="http://www.w3.org/1999/xlink" xml:space="preserve" xmlns:serif="http://www.serif.com/" style="fill-rule:evenodd;clip-rule:evenodd;stroke-linejoin:round;stroke-miterlimit:2;"><g><path d="M500,91.601c7.28,93.891 9.001,187.883 5.162,281.978c-3.44,-0.141 -6.884,-0.141 -10.324,-0c-3.839,-94.095 -2.118,-188.087 5.162,-281.978Zm-54.449,3.645c19.729,92.083 33.963,185.007 42.7,278.774c-3.428,0.319 -6.842,0.778 -10.232,1.376c-16.346,-92.743 -27.169,-186.127 -32.468,-280.15Zm-53.478,10.87c31.827,88.631 58.319,178.829 79.476,270.595c-3.355,0.773 -6.676,1.683 -9.957,2.727c-28.562,-89.737 -51.735,-180.844 -69.519,-273.322Zm-51.551,17.9c43.356,83.599 81.634,169.461 114.833,257.588c-3.221,1.214 -6.392,2.558 -9.505,4.03c-40.267,-85.129 -75.377,-172.335 -105.328,-261.618Zm-48.706,24.612c54.112,77.074 103.493,157.069 148.142,239.984c-3.031,1.632 -5.995,3.387 -8.883,5.261c-51.255,-79.003 -97.674,-160.751 -139.259,-245.245Zm-44.99,30.885c63.902,69.173 123.504,141.872 178.806,218.096c-2.786,2.022 -5.489,4.157 -8.102,6.399c-61.328,-71.466 -118.229,-146.298 -170.704,-224.495Zm-40.473,36.605c72.552,60.039 141.312,124.145 206.281,192.318c-2.493,2.375 -4.887,4.851 -7.178,7.421c-70.305,-62.654 -136.673,-129.234 -199.103,-199.739Zm-35.233,41.673c79.907,49.834 156.599,104.203 230.074,163.108c-2.153,2.686 -4.196,5.459 -6.124,8.312c-78.03,-52.725 -152.679,-109.864 -223.95,-171.42Zm-29.363,45.998c85.836,38.738 169.089,82.4 249.761,130.986c-1.777,2.95 -3.432,5.97 -4.962,9.054c-84.361,-41.854 -165.961,-88.534 -244.799,-140.04Zm-22.971,49.501c90.233,26.951 178.564,59.127 264.991,96.528c-1.367,3.159 -2.605,6.373 -3.71,9.634c-89.187,-30.236 -176.281,-65.624 -261.281,-106.162Zm-16.168,52.121c93.02,14.684 184.851,34.799 275.493,60.346c-0.934,3.314 -1.733,6.664 -2.394,10.043c-92.421,-18.079 -183.454,-41.542 -273.099,-70.389Zm-9.077,53.811c94.148,2.154 187.841,9.85 281.078,23.088c-0.484,3.409 -0.829,6.836 -1.033,10.272c-94.006,-5.599 -187.355,-16.719 -280.045,-33.36Zm-1.824,54.54c93.596,-10.413 187.478,-15.274 281.648,-14.581c-0.025,3.442 0.09,6.885 0.345,10.318c-93.913,6.981 -187.911,8.402 -281.993,4.263Zm5.463,54.297c91.372,-22.796 183.769,-40.126 277.191,-51.991c0.434,3.415 1.007,6.811 1.717,10.18c-92.145,19.436 -185.114,33.373 -278.908,41.811Zm12.65,53.084c87.519,-34.77 176.782,-64.262 267.789,-88.473c0.885,3.327 1.905,6.617 3.058,9.861c-88.732,31.544 -179.014,57.748 -270.847,78.612Zm19.614,50.925c82.103,-46.126 166.638,-87.251 253.606,-123.377c1.321,3.18 2.771,6.304 4.346,9.365c-83.736,43.09 -169.72,81.094 -257.952,114.012Zm26.226,47.856c75.222,-56.657 153.522,-108.683 234.899,-156.078c1.732,2.975 3.586,5.878 5.555,8.702c-77.246,53.866 -157.397,102.991 -240.454,147.376Zm32.37,43.934c67,-66.178 137.666,-128.177 212,-185.995c2.114,2.717 4.337,5.348 6.666,7.884c-69.377,63.681 -142.266,123.051 -218.666,178.111Zm37.937,39.226c57.581,-74.517 119.354,-145.381 185.318,-212.592c2.457,2.412 5.012,4.722 7.657,6.926c-60.27,72.36 -124.595,140.916 -192.975,205.666Zm42.828,33.821c47.135,-81.528 98.911,-159.993 155.328,-235.396c2.757,2.063 5.596,4.012 8.512,5.843c-50.088,79.748 -104.701,156.266 -163.84,229.553Zm46.953,27.81c35.848,-87.083 76.703,-171.749 122.567,-253.998c3.007,1.676 6.081,3.23 9.215,4.656c-39.012,85.712 -82.939,168.826 -131.782,249.342Zm50.24,21.304c23.922,-91.084 53.128,-180.44 87.62,-268.069c3.203,1.261 6.457,2.391 9.752,3.387c-27.238,90.147 -59.696,178.374 -97.372,264.682Zm52.632,14.417c11.568,-93.459 28.604,-185.911 51.108,-277.355c3.343,0.823 6.718,1.509 10.117,2.056c-14.98,92.974 -35.389,184.74 -61.225,275.299Zm54.084,7.274c-0.992,-94.167 3.569,-188.065 13.684,-281.693c3.423,0.37 6.859,0.6 10.301,0.69c-2.455,94.141 -10.449,187.808 -23.985,281.003Zm54.572,0c-13.536,-93.195 -21.53,-186.862 -23.985,-281.003c3.442,-0.09 6.878,-0.32 10.301,-0.69c10.115,93.628 14.676,187.526 13.684,281.693Zm54.084,-7.274c-25.836,-90.559 -46.245,-182.325 -61.225,-275.299c3.399,-0.547 6.774,-1.233 10.117,-2.056c22.504,91.444 39.54,183.896 51.108,277.355Zm52.632,-14.417c-37.676,-86.308 -70.134,-174.535 -97.372,-264.682c3.295,-0.996 6.549,-2.126 9.752,-3.387c34.492,87.629 63.698,176.985 87.62,268.069Zm50.24,-21.304c-48.843,-80.516 -92.77,-163.63 -131.782,-249.342c3.134,-1.426 6.208,-2.98 9.215,-4.656c45.864,82.249 86.719,166.915 122.567,253.998Zm46.953,-27.81c-59.139,-73.287 -113.752,-149.805 -163.84,-229.553c2.916,-1.831 5.755,-3.78 8.512,-5.843c56.417,75.403 108.193,153.868 155.328,235.396Zm42.828,-33.821c-68.38,-64.75 -132.705,-133.306 -192.975,-205.666c2.645,-2.204 5.2,-4.514 7.657,-6.926c65.964,67.211 127.737,138.075 185.318,212.592Zm37.937,-39.226c-76.4,-55.06 -149.289,-114.43 -218.666,-178.111c2.329,-2.536 4.552,-5.167 6.666,-7.884c74.334,57.818 145,119.817 212,185.995Zm32.37,-43.934c-83.057,-44.385 -163.208,-93.51 -240.454,-147.376c1.969,-2.824 3.823,-5.727 5.555,-8.702c81.377,47.395 159.677,99.421 234.899,156.078Zm26.226,-47.856c-88.232,-32.918 -174.216,-70.922 -257.952,-114.012c1.575,-3.061 3.025,-6.185 4.346,-9.365c86.968,36.126 171.503,77.251 253.606,123.377Zm19.614,-50.925c-91.833,-20.864 -182.115,-47.068 -270.847,-78.612c1.153,-3.244 2.173,-6.534 3.058,-9.861c91.007,24.211 180.27,53.703 267.789,88.473Zm12.65,-53.084c-93.794,-8.438 -186.763,-22.375 -278.908,-41.811c0.71,-3.369 1.283,-6.765 1.717,-10.18c93.422,11.865 185.819,29.195 277.191,51.991Zm5.463,-54.297c-94.082,4.139 -188.08,2.718 -281.993,-4.263c0.255,-3.433 0.37,-6.876 0.345,-10.318c94.17,-0.693 188.052,4.168 281.648,14.581Zm-1.824,-54.54c-92.69,16.641 -186.039,27.761 -280.045,33.36c-0.204,-3.436 -0.549,-6.863 -1.033,-10.272c93.237,-13.238 186.93,-20.934 281.078,-23.088Zm-9.077,-53.811c-89.645,28.847 -180.678,52.31 -273.099,70.389c-0.661,-3.379 -1.46,-6.729 -2.394,-10.043c90.642,-25.547 182.473,-45.662 275.493,-60.346Zm-16.168,-52.121c-85,40.538 -172.094,75.926 -261.281,106.162c-1.105,-3.261 -2.343,-6.475 -3.71,-9.634c86.427,-37.401 174.758,-69.577 264.991,-96.528Zm-22.971,-49.501c-78.838,51.506 -160.438,98.186 -244.799,140.04c-1.53,-3.084 -3.185,-6.104 -4.962,-9.054c80.672,-48.586 163.925,-92.248 249.761,-130.986Zm-29.363,-45.998c-71.271,61.556 -145.92,118.695 -223.95,171.42c-1.928,-2.853 -3.971,-5.626 -6.124,-8.312c73.475,-58.905 150.167,-113.274 230.074,-163.108Zm-35.233,-41.673c-62.43,70.505 -128.798,137.085 -199.103,199.739c-2.291,-2.57 -4.685,-5.046 -7.178,-7.421c64.969,-68.173 133.729,-132.279 206.281,-192.318Zm-40.473,-36.605c-52.475,78.197 -109.376,153.029 -170.704,224.495c-2.613,-2.242 -5.316,-4.377 -8.102,-6.399c55.302,-76.224 114.904,-148.923 178.806,-218.096Zm-44.99,-30.885c-41.585,84.494 -88.004,166.242 -139.259,245.245c-2.888,-1.874 -5.852,-3.629 -8.883,-5.261c44.649,-82.915 94.03,-162.91 148.142,-239.984Zm-48.706,-24.612c-29.951,89.283 -65.061,176.489 -105.328,261.618c-3.113,-1.472 -6.284,-2.816 -9.505,-4.03c33.199,-88.127 71.477,-173.989 114.833,-257.588Zm-51.551,-17.9c-17.784,92.478 -40.957,183.585 -69.519,273.322c-3.281,-1.044 -6.602,-1.954 -9.957,-2.727c21.157,-91.766 47.649,-181.964 79.476,-270.595Zm-53.478,-10.87c-5.299,94.023 -16.122,187.407 -32.468,280.15c-3.39,-0.598 -6.804,-1.057 -10.232,-1.376c8.737,-93.767 22.971,-186.691 42.7,-278.774Z" style="fill:#771fe7;"/><path d="M475.338,146.115c11.971,80.734 19.141,161.892 21.51,243.473c-2.982,0.087 -5.96,0.295 -8.925,0.625c-9.008,-81.118 -13.202,-162.484 -12.585,-244.098Zm-46.854,6.443c22.625,78.418 40.548,157.896 53.77,238.434c-2.944,0.483 -5.867,1.087 -8.763,1.808c-19.739,-79.193 -34.741,-159.274 -45.007,-240.242Zm-45.577,12.631c32.875,74.702 61.232,151.082 85.071,229.139c-2.854,0.872 -5.671,1.859 -8.444,2.96c-30.118,-75.855 -55.661,-153.222 -76.627,-232.099Zm-43.487,18.592c42.538,69.655 80.823,141.574 114.853,215.757c-2.712,1.244 -5.372,2.598 -7.974,4.059c-39.96,-71.165 -75.586,-144.437 -106.879,-219.816Zm-40.62,24.223c51.442,63.364 98.97,129.538 142.585,198.523c-2.522,1.595 -4.978,3.291 -7.362,5.086c-49.089,-65.203 -94.163,-133.073 -135.223,-203.609Zm-37.03,29.422c59.429,55.941 115.353,115.19 167.773,177.746c-2.287,1.917 -4.495,3.926 -6.618,6.022c-57.341,-58.079 -111.06,-119.335 -161.155,-183.768Zm-32.778,34.094c66.355,47.521 129.677,98.787 189.968,153.799c-2.011,2.204 -3.932,4.489 -5.757,6.85c-64.571,-49.918 -125.975,-103.468 -184.211,-160.649Zm-27.941,38.159c72.097,38.252 141.687,80.621 208.772,127.106c-1.699,2.452 -3.298,4.973 -4.792,7.556c-70.648,-40.866 -138.642,-85.753 -203.98,-134.662Zm-22.606,41.542c76.552,28.302 151.169,61.017 223.851,98.146c-1.357,2.657 -2.606,5.368 -3.742,8.127c-75.465,-31.084 -148.835,-66.509 -220.109,-106.273Zm-16.867,44.185c79.641,17.846 157.953,40.324 234.935,67.434c-0.991,2.814 -1.867,5.668 -2.625,8.553c-78.935,-20.749 -156.371,-46.078 -232.31,-75.987Zm-10.827,46.039c81.309,7.072 161.918,18.911 241.827,35.518c-0.607,2.921 -1.095,5.866 -1.462,8.827c-80.996,-10.042 -161.118,-24.824 -240.365,-44.345Zm-4.594,47.071c81.526,-3.829 162.994,-2.839 244.403,2.969c-0.212,2.976 -0.303,5.96 -0.272,8.943c-81.612,0.843 -162.989,-3.128 -244.131,-11.912Zm1.72,47.264c80.289,-14.661 161.162,-24.539 242.619,-29.634c0.186,2.978 0.494,5.947 0.922,8.9c-80.771,11.713 -161.952,18.624 -243.541,20.734Zm8.006,46.612c77.618,-25.232 156.452,-45.801 236.503,-61.707c0.582,2.927 1.283,5.828 2.101,8.698c-78.49,22.374 -158.025,40.044 -238.604,53.009Zm14.146,45.13c73.562,-35.352 148.952,-66.245 226.169,-92.68c0.966,2.823 2.047,5.606 3.241,8.341c-74.807,32.636 -151.277,60.749 -229.41,84.339Zm20.035,42.841c68.194,-44.841 138.794,-85.507 211.798,-121.998c1.334,2.669 2.777,5.283 4.324,7.834c-69.79,42.316 -141.83,80.371 -216.122,114.164Zm25.567,39.789c61.609,-53.531 126.158,-103.244 193.648,-149.139c1.678,2.467 3.455,4.865 5.329,7.187c-63.527,51.241 -129.853,98.558 -198.977,141.952Zm30.642,36.026c53.924,-61.265 111.271,-119.138 172.042,-173.619c1.991,2.221 4.073,4.361 6.239,6.413c-56.13,59.25 -115.557,114.986 -178.281,167.206Zm35.171,31.62c45.277,-67.905 94.399,-132.906 147.365,-195.001c2.27,1.937 4.618,3.78 7.038,5.525c-47.732,66.203 -99.2,129.362 -154.403,189.476Zm39.071,26.651c35.822,-73.335 75.842,-144.303 120.059,-212.903c2.508,1.616 5.081,3.13 7.712,4.537c-38.482,71.974 -81.073,141.43 -127.771,208.366Zm42.275,21.205c25.728,-77.455 55.931,-153.124 90.61,-227.006c2.701,1.268 5.453,2.425 8.248,3.469c-28.545,76.461 -61.498,150.973 -98.858,223.537Zm44.724,15.381c15.174,-80.193 35.023,-159.212 59.545,-237.058c2.846,0.897 5.727,1.677 8.637,2.339c-18.1,79.584 -40.827,157.823 -68.182,234.719Zm46.374,9.283c4.351,-81.501 13.49,-162.46 27.418,-242.879c2.94,0.509 5.9,0.898 8.871,1.166c-7.33,81.286 -19.427,161.857 -36.289,241.713Zm47.199,3.018c-6.551,-81.353 -8.284,-162.808 -5.2,-244.366c2.982,0.113 5.967,0.104 8.948,-0.026c3.569,81.538 2.32,163.002 -3.748,244.392Zm47.18,-3.299c-17.336,-79.754 -29.911,-160.251 -37.725,-241.493c2.97,-0.285 5.928,-0.692 8.865,-1.219c14.405,80.335 24.025,161.239 28.86,242.712Zm46.319,-9.558c-27.812,-76.731 -51.004,-154.835 -69.576,-234.31c2.906,-0.679 5.782,-1.476 8.623,-2.389c24.984,77.698 45.302,156.598 60.953,236.699Zm44.631,-15.646c-37.79,-72.34 -71.185,-146.656 -100.185,-222.946c2.789,-1.06 5.534,-2.234 8.227,-3.518c35.118,73.675 65.771,149.163 91.958,226.464Zm42.148,-21.456c-47.095,-66.658 -90.097,-135.859 -129.007,-207.603c2.623,-1.423 5.187,-2.952 7.685,-4.583c44.624,68.337 85.065,139.065 121.322,212.186Zm38.912,-26.882c-55.559,-59.786 -107.402,-122.638 -155.526,-188.556c2.41,-1.76 4.747,-3.617 7.005,-5.566c53.335,61.779 102.842,126.486 148.521,194.122Zm34.982,-31.829c-63.032,-51.847 -122.789,-107.228 -179.271,-166.144c2.154,-2.065 4.223,-4.217 6.202,-6.45c61.092,54.119 118.782,111.65 173.069,172.594Zm30.428,-36.207c-69.381,-42.983 -135.986,-89.906 -199.816,-140.767c1.859,-2.334 3.622,-4.742 5.286,-7.22c67.761,45.494 132.604,94.823 194.53,147.987Zm25.33,-39.94c-74.491,-33.352 -146.756,-70.978 -216.796,-112.878c1.532,-2.561 2.959,-5.183 4.277,-7.86c73.22,36.056 144.06,76.302 212.519,120.738Zm19.78,-42.96c-78.271,-23.126 -154.907,-50.784 -229.906,-82.975c1.177,-2.742 2.241,-5.53 3.191,-8.359c77.372,25.975 152.944,56.419 226.715,91.334Zm13.878,-45.213c-80.655,-12.486 -160.293,-29.683 -238.914,-51.591c0.801,-2.874 1.484,-5.78 2.048,-8.71c80.144,15.43 159.1,35.531 236.866,60.301Zm7.728,-46.659c-81.6,-1.625 -162.82,-8.054 -243.659,-19.286c0.411,-2.956 0.701,-5.927 0.869,-8.906c81.486,4.611 162.416,14.008 242.79,28.192Zm1.44,-47.273c-81.088,9.266 -162.44,13.72 -244.056,13.362c0.013,-2.983 -0.095,-5.967 -0.325,-8.941c81.373,-6.292 162.834,-7.766 244.381,-4.421Zm-4.874,-47.043c-79.13,19.991 -159.162,35.249 -240.097,45.772c-0.385,-2.958 -0.89,-5.9 -1.514,-8.818c79.808,-17.082 160.346,-29.4 241.611,-36.954Zm-11.1,-45.974c-75.759,30.36 -153.044,56.149 -231.854,77.366c-0.776,-2.881 -1.669,-5.729 -2.677,-8.538c76.82,-27.566 154.997,-50.509 234.531,-68.828Zm-17.129,-44.084c-71.037,40.187 -144.195,76.047 -219.474,107.579c-1.153,-2.752 -2.417,-5.456 -3.79,-8.105c72.46,-37.56 146.881,-70.718 223.264,-99.474Zm-22.852,-41.407c-65.047,49.296 -132.773,94.587 -203.177,135.872c-1.509,-2.574 -3.123,-5.086 -4.837,-7.528c66.808,-46.883 136.145,-89.664 208.014,-128.344Zm-28.168,-37.993c-57.895,57.527 -118.98,111.44 -183.253,161.741c-1.839,-2.35 -3.773,-4.624 -5.798,-6.816c59.963,-55.369 122.98,-107.01 189.051,-154.925Zm-32.98,-33.898c-49.711,64.73 -103.065,126.304 -160.06,184.722c-2.136,-2.083 -4.356,-4.079 -6.654,-5.982c52.047,-62.867 107.619,-122.447 166.714,-178.74Zm-37.204,-29.201c-40.64,70.778 -85.31,138.914 -134.011,204.408c-2.394,-1.78 -4.86,-3.462 -7.392,-5.041c43.204,-69.244 90.338,-135.699 141.403,-199.367Zm-40.764,-23.981c-30.843,75.563 -66.034,149.046 -105.57,220.446c-2.611,-1.445 -5.279,-2.783 -7.998,-4.011c33.589,-74.384 71.445,-146.529 113.568,-216.435Zm-43.596,-18.334c-20.497,79 -45.579,156.517 -75.246,232.551c-2.78,-1.085 -5.603,-2.056 -8.462,-2.91c23.375,-78.198 51.278,-154.745 83.708,-229.641Zm-45.652,-12.36c-9.784,81.028 -24.31,161.196 -43.578,240.505c-2.9,-0.704 -5.827,-1.29 -8.774,-1.756c12.744,-80.615 30.195,-160.198 52.352,-238.749Zm-46.891,-6.164c1.103,81.608 -2.608,162.998 -11.134,244.168c-2.967,-0.312 -5.946,-0.503 -8.929,-0.572c1.885,-81.594 8.573,-162.793 20.063,-243.596Z" style="fill:#ff4d80;"/><path d="M479.132,200.506c10.129,68.313 16.196,136.985 18.201,206.016c-2.523,0.073 -5.043,0.249 -7.552,0.528c-7.622,-68.638 -11.171,-137.486 -10.649,-206.544Zm-39.645,5.452c19.143,66.353 34.309,133.604 45.497,201.751c-2.491,0.41 -4.965,0.92 -7.414,1.531c-16.703,-67.01 -29.397,-134.771 -38.083,-203.282Zm-38.565,10.687c27.816,63.21 51.811,127.839 71.982,193.888c-2.415,0.737 -4.798,1.573 -7.145,2.504c-25.484,-64.185 -47.097,-129.649 -64.837,-196.392Zm-36.797,15.732c35.994,58.939 68.388,119.793 97.183,182.563c-2.295,1.053 -4.546,2.199 -6.747,3.435c-33.813,-60.216 -63.958,-122.215 -90.436,-185.998Zm-34.372,20.497c43.529,53.615 83.745,109.608 120.65,167.981c-2.134,1.349 -4.213,2.785 -6.23,4.303c-41.536,-55.172 -79.676,-112.6 -114.42,-172.284Zm-31.332,24.895c50.286,47.334 97.606,97.468 141.962,150.401c-1.935,1.621 -3.804,3.321 -5.6,5.095c-48.52,-49.144 -93.974,-100.976 -136.362,-155.496Zm-27.736,28.849c56.147,40.21 109.728,83.589 160.743,130.137c-1.702,1.865 -3.327,3.799 -4.871,5.796c-54.637,-42.238 -106.595,-87.549 -155.872,-135.933Zm-23.642,32.288c61.005,32.368 119.889,68.218 176.653,107.551c-1.438,2.076 -2.79,4.209 -4.054,6.394c-59.78,-34.579 -117.313,-72.56 -172.599,-113.945Zm-19.128,35.151c64.775,23.948 127.912,51.63 189.413,83.047c-1.149,2.248 -2.205,4.542 -3.167,6.877c-63.855,-26.303 -125.937,-56.277 -186.246,-89.924Zm-14.272,37.388c67.389,15.1 133.653,34.12 198.791,57.059c-0.838,2.381 -1.579,4.796 -2.221,7.237c-66.791,-17.556 -132.314,-38.989 -196.57,-64.296Zm-9.161,38.956c68.8,5.983 137.007,16.001 204.622,30.053c-0.513,2.472 -0.926,4.964 -1.237,7.469c-68.535,-8.497 -136.33,-21.005 -203.385,-37.522Zm-3.888,39.829c68.984,-3.24 137.918,-2.403 206.803,2.512c-0.18,2.518 -0.256,5.043 -0.23,7.567c-69.057,0.713 -137.914,-2.646 -206.573,-10.079Zm1.456,39.992c67.937,-12.405 136.368,-20.764 205.293,-25.074c0.157,2.519 0.418,5.032 0.78,7.53c-68.345,9.911 -137.036,15.759 -206.073,17.544Zm6.774,39.442c65.676,-21.351 132.383,-38.755 200.118,-52.214c0.492,2.476 1.085,4.931 1.777,7.359c-66.414,18.932 -133.712,33.884 -201.895,44.855Zm11.97,38.186c62.245,-29.913 126.036,-56.054 191.373,-78.421c0.818,2.389 1.733,4.743 2.743,7.057c-63.299,27.615 -128.004,51.403 -194.116,71.364Zm16.953,36.251c57.702,-37.943 117.44,-72.353 179.213,-103.229c1.129,2.258 2.35,4.469 3.659,6.628c-59.053,35.806 -120.01,68.006 -182.872,96.601Zm21.633,33.667c52.131,-45.296 106.749,-87.36 163.856,-126.195c1.42,2.088 2.924,4.117 4.509,6.082c-53.753,43.357 -109.875,83.395 -168.365,120.113Zm25.928,30.483c45.628,-51.839 94.153,-100.809 145.574,-146.908c1.685,1.88 3.446,3.69 5.279,5.426c-47.495,50.135 -97.779,97.296 -150.853,141.482Zm29.76,26.756c38.311,-57.459 79.876,-112.459 124.693,-165.001c1.921,1.639 3.908,3.198 5.956,4.675c-40.389,56.018 -83.939,109.46 -130.649,160.326Zm33.06,22.551c30.311,-62.053 64.174,-122.103 101.589,-180.149c2.122,1.368 4.299,2.648 6.525,3.839c-32.562,60.901 -68.6,119.671 -108.114,176.31Zm35.771,17.942c21.77,-65.539 47.327,-129.566 76.671,-192.082c2.285,1.073 4.613,2.052 6.979,2.935c-24.154,64.699 -52.038,127.747 -83.65,189.147Zm37.843,13.015c12.84,-67.856 29.635,-134.718 50.385,-200.587c2.408,0.758 4.846,1.419 7.308,1.978c-15.315,67.341 -34.546,133.544 -57.693,198.609Zm39.241,7.855c3.681,-68.962 11.414,-137.466 23.199,-205.513c2.488,0.43 4.992,0.76 7.506,0.986c-6.202,68.781 -16.438,136.957 -30.705,204.527Zm39.937,2.554c-5.544,-68.837 -7.01,-137.761 -4.4,-206.772c2.523,0.096 5.049,0.088 7.571,-0.022c3.02,68.994 1.963,137.925 -3.171,206.794Zm39.921,-2.792c-14.669,-67.484 -25.309,-135.597 -31.921,-204.34c2.514,-0.241 5.016,-0.586 7.501,-1.031c12.189,67.976 20.329,136.433 24.42,205.371Zm39.193,-8.087c-23.533,-64.927 -43.157,-131.014 -58.872,-198.263c2.459,-0.574 4.893,-1.249 7.296,-2.021c21.141,65.744 38.333,132.505 51.576,200.284Zm37.765,-13.24c-31.976,-61.21 -60.234,-124.093 -84.772,-188.646c2.36,-0.897 4.683,-1.89 6.962,-2.976c29.715,62.34 55.651,126.214 77.81,191.622Zm35.664,-18.155c-39.85,-56.402 -76.237,-114.957 -109.16,-175.664c2.22,-1.203 4.389,-2.497 6.503,-3.877c37.759,57.823 71.978,117.67 102.657,179.541Zm32.926,-22.746c-47.013,-50.588 -90.879,-103.77 -131.6,-159.547c2.039,-1.489 4.017,-3.06 5.928,-4.71c45.129,52.275 87.019,107.027 125.672,164.257Zm29.6,-26.932c-53.336,-43.87 -103.899,-90.731 -151.691,-140.583c1.822,-1.747 3.573,-3.568 5.247,-5.458c51.694,45.793 100.508,94.473 146.444,146.041Zm25.746,-30.637c-58.707,-36.37 -115.065,-76.074 -169.075,-119.11c1.573,-1.975 3.065,-4.013 4.473,-6.109c57.336,38.494 112.203,80.234 164.602,125.219Zm21.433,-33.795c-63.031,-28.221 -124.178,-60.058 -183.443,-95.512c1.297,-2.167 2.504,-4.386 3.619,-6.651c61.956,30.509 121.897,64.563 179.824,102.163Zm16.737,-36.351c-66.229,-19.568 -131.075,-42.971 -194.536,-70.209c0.996,-2.32 1.897,-4.68 2.7,-7.073c65.469,21.978 129.415,47.739 191.836,77.282Zm11.743,-38.257c-68.246,-10.565 -135.633,-25.117 -202.158,-43.654c0.677,-2.432 1.256,-4.89 1.733,-7.37c67.814,13.057 134.623,30.065 200.425,51.024Zm6.539,-39.481c-69.046,-1.375 -137.77,-6.814 -206.173,-16.319c0.348,-2.501 0.593,-5.015 0.736,-7.535c68.949,3.901 137.428,11.852 205.437,23.854Zm1.219,-40c-68.614,7.84 -137.45,11.609 -206.509,11.307c0.011,-2.525 -0.081,-5.049 -0.276,-7.566c68.855,-5.324 137.783,-6.571 206.785,-3.741Zm-4.124,-39.806c-66.956,16.916 -134.676,29.826 -203.159,38.731c-0.326,-2.504 -0.753,-4.993 -1.282,-7.462c67.531,-14.453 135.677,-24.876 204.441,-31.269Zm-9.393,-38.9c-64.104,25.689 -129.499,47.51 -196.184,65.463c-0.657,-2.438 -1.412,-4.848 -2.265,-7.224c65.002,-23.326 131.151,-42.739 198.449,-58.239Zm-14.494,-37.302c-60.108,34.004 -122.011,64.347 -185.708,91.028c-0.976,-2.329 -2.046,-4.617 -3.208,-6.858c61.313,-31.781 124.285,-59.838 188.916,-84.17Zm-19.336,-35.037c-55.04,41.712 -112.346,80.035 -171.919,114.968c-1.277,-2.178 -2.642,-4.303 -4.093,-6.369c56.53,-39.67 115.2,-75.87 176.012,-108.599Zm-23.834,-32.148c-48.989,48.677 -100.676,94.296 -155.061,136.858c-1.556,-1.989 -3.192,-3.913 -4.905,-5.767c50.737,-46.851 104.059,-90.548 159.966,-131.091Zm-27.906,-28.683c-42.064,54.771 -87.209,106.872 -135.436,156.304c-1.807,-1.764 -3.686,-3.452 -5.63,-5.062c44.04,-53.196 91.062,-103.61 141.066,-151.242Zm-31.48,-24.708c-34.388,59.889 -72.187,117.543 -113.395,172.961c-2.026,-1.507 -4.112,-2.93 -6.254,-4.267c36.557,-58.59 76.44,-114.822 119.649,-168.694Zm-34.493,-20.292c-26.099,63.938 -55.875,126.115 -89.329,186.531c-2.209,-1.223 -4.467,-2.355 -6.768,-3.394c28.422,-62.94 60.454,-123.986 96.097,-183.137Zm-36.89,-15.514c-17.343,66.847 -38.567,132.438 -63.669,196.774c-2.352,-0.918 -4.741,-1.739 -7.16,-2.462c19.779,-66.167 43.389,-130.938 70.829,-194.312Zm-38.628,-10.458c-8.279,68.562 -20.57,136.397 -36.874,203.505c-2.453,-0.596 -4.93,-1.092 -7.424,-1.486c10.783,-68.213 25.549,-135.553 44.298,-202.019Zm-39.677,-5.216c0.933,69.054 -2.207,137.922 -9.421,206.604c-2.511,-0.264 -5.031,-0.425 -7.555,-0.484c1.595,-69.041 7.253,-137.748 16.976,-206.12Z" style="fill:#41d3bd;"/><path d="M498.783,283.233c3.882,50.075 4.8,100.205 2.753,150.388c-1.835,-0.075 -3.672,-0.075 -5.506,0c-2.048,-50.183 -1.13,-100.313 2.753,-150.388Zm-29.04,1.944c10.523,49.111 18.114,98.671 22.773,148.679c-1.828,0.171 -3.648,0.416 -5.457,0.734c-8.718,-49.463 -14.49,-99.267 -17.316,-149.413Zm-28.521,5.797c16.974,47.27 31.103,95.376 42.387,144.318c-1.789,0.412 -3.561,0.897 -5.311,1.454c-15.233,-47.859 -27.591,-96.45 -37.076,-145.772Zm-27.494,9.547c23.123,44.586 43.538,90.379 61.244,137.38c-1.718,0.648 -3.409,1.365 -5.069,2.15c-21.476,-45.402 -40.201,-91.912 -56.175,-139.53Zm-25.977,13.127c28.86,41.106 55.196,83.769 79.009,127.991c-1.616,0.87 -3.197,1.807 -4.737,2.806c-27.336,-42.135 -52.093,-85.734 -74.272,-130.797Zm-23.995,16.471c34.081,36.893 65.869,75.666 95.364,116.319c-1.486,1.078 -2.928,2.216 -4.321,3.412c-32.708,-38.115 -63.056,-78.025 -91.043,-119.731Zm-21.585,19.523c38.694,32.021 75.366,66.211 110.016,102.57c-1.329,1.267 -2.606,2.587 -3.828,3.958c-37.496,-33.416 -72.892,-68.925 -106.188,-106.528Zm-18.791,22.226c42.617,26.578 83.519,55.575 122.706,86.991c-1.148,1.432 -2.238,2.911 -3.266,4.433c-41.616,-28.12 -81.429,-58.595 -119.44,-91.424Zm-15.66,24.532c45.779,20.66 90.181,43.947 133.205,69.859c-0.947,1.573 -1.83,3.184 -2.646,4.829c-44.992,-22.322 -88.512,-47.218 -130.559,-74.688Zm-12.252,26.4c48.125,14.375 95.235,31.535 141.329,51.482c-0.729,1.685 -1.389,3.399 -1.979,5.138c-47.566,-16.126 -94.016,-34.999 -139.35,-56.62Zm-8.623,27.798c49.612,7.832 98.588,18.56 146.93,32.185c-0.498,1.767 -0.924,3.554 -1.276,5.356c-49.292,-9.642 -97.843,-22.155 -145.654,-37.541Zm-4.84,28.699c50.212,1.149 100.181,5.254 149.908,12.314c-0.258,1.818 -0.442,3.646 -0.551,5.479c-50.137,-2.986 -99.923,-8.917 -149.357,-17.793Zm-0.973,29.089c49.917,-5.554 99.988,-8.146 150.212,-7.777c-0.013,1.836 0.048,3.672 0.184,5.503c-50.087,3.723 -100.219,4.481 -150.396,2.274Zm2.913,28.958c48.732,-12.158 98.01,-21.4 147.835,-27.729c0.232,1.822 0.537,3.633 0.916,5.43c-49.144,10.366 -98.727,17.799 -148.751,22.299Zm6.747,28.312c46.677,-18.545 94.283,-34.273 142.821,-47.186c0.472,1.774 1.016,3.529 1.631,5.259c-47.324,16.824 -95.475,30.799 -144.452,41.927Zm10.461,27.16c43.788,-24.601 88.873,-46.534 135.256,-65.801c0.705,1.695 1.478,3.362 2.318,4.994c-44.659,22.981 -90.517,43.25 -137.574,60.807Zm13.987,25.523c40.118,-30.217 81.878,-57.965 125.279,-83.242c0.924,1.587 1.913,3.135 2.963,4.641c-41.198,28.729 -83.945,54.929 -128.242,78.601Zm17.264,23.431c35.733,-35.295 73.422,-68.361 113.067,-99.197c1.127,1.449 2.313,2.852 3.555,4.205c-37.001,33.963 -75.875,65.627 -116.622,94.992Zm20.233,20.921c30.71,-39.743 63.656,-77.537 98.836,-113.382c1.311,1.286 2.673,2.518 4.084,3.693c-32.144,38.592 -66.451,75.155 -102.92,109.689Zm22.841,18.037c25.139,-43.481 52.753,-85.329 82.842,-125.544c1.471,1.1 2.985,2.14 4.54,3.116c-26.713,42.533 -55.841,83.342 -87.382,122.428Zm25.042,14.833c19.119,-46.444 40.909,-91.6 65.369,-135.466c1.604,0.894 3.244,1.723 4.915,2.483c-20.806,45.713 -44.234,90.041 -70.284,132.983Zm26.795,11.362c12.758,-48.578 28.335,-96.235 46.73,-142.97c1.709,0.672 3.444,1.275 5.202,1.806c-14.528,48.078 -31.838,95.133 -51.932,141.164Zm28.071,7.689c6.169,-49.845 15.255,-99.153 27.257,-147.923c1.783,0.439 3.583,0.805 5.396,1.097c-7.99,49.586 -18.874,98.528 -32.653,146.826Zm28.844,3.879c-0.529,-50.222 1.904,-100.301 7.298,-150.236c1.826,0.197 3.659,0.32 5.494,0.368c-1.309,50.208 -5.573,100.164 -12.792,149.868Zm29.105,0c-7.219,-49.704 -11.483,-99.66 -12.792,-149.868c1.836,-0.048 3.669,-0.171 5.494,-0.368c5.395,49.935 7.827,100.014 7.298,150.236Zm28.845,-3.879c-13.779,-48.298 -24.664,-97.24 -32.653,-146.826c1.812,-0.292 3.613,-0.658 5.396,-1.097c12.002,48.77 21.087,98.078 27.257,147.923Zm28.07,-7.689c-20.094,-46.031 -37.404,-93.086 -51.932,-141.164c1.758,-0.531 3.493,-1.134 5.202,-1.806c18.395,46.735 33.972,94.392 46.73,142.97Zm26.795,-11.362c-26.049,-42.942 -49.477,-87.27 -70.283,-132.983c1.671,-0.76 3.31,-1.589 4.914,-2.483c24.461,43.866 46.25,89.022 65.369,135.466Zm25.042,-14.833c-31.541,-39.086 -60.668,-79.895 -87.382,-122.428c1.555,-0.976 3.07,-2.016 4.54,-3.116c30.089,40.215 57.703,82.063 82.842,125.544Zm22.841,-18.037c-36.469,-34.534 -70.776,-71.097 -102.92,-109.689c1.411,-1.175 2.773,-2.407 4.084,-3.693c35.181,35.845 68.126,73.639 98.836,113.382Zm20.233,-20.921c-40.746,-29.365 -79.62,-61.029 -116.621,-94.992c1.241,-1.353 2.427,-2.756 3.555,-4.205c39.644,30.836 77.333,63.902 113.066,99.197Zm17.265,-23.431c-44.298,-23.672 -87.045,-49.872 -128.243,-78.601c1.051,-1.506 2.039,-3.054 2.963,-4.641c43.401,25.277 85.161,53.025 125.28,83.242Zm13.987,-25.523c-47.057,-17.557 -92.915,-37.826 -137.575,-60.807c0.84,-1.632 1.614,-3.299 2.318,-4.994c46.383,19.267 91.468,41.2 135.257,65.801Zm10.46,-27.16c-48.977,-11.128 -97.128,-25.103 -144.452,-41.927c0.615,-1.73 1.16,-3.485 1.632,-5.259c48.537,12.913 96.144,28.641 142.82,47.186Zm6.747,-28.312c-50.023,-4.5 -99.607,-11.933 -148.751,-22.299c0.379,-1.797 0.684,-3.608 0.916,-5.43c49.825,6.329 99.103,15.571 147.835,27.729Zm2.913,-28.958c-50.177,2.207 -100.309,1.449 -150.396,-2.274c0.136,-1.831 0.198,-3.667 0.184,-5.503c50.224,-0.369 100.295,2.223 150.212,7.777Zm-0.972,-29.089c-49.435,8.876 -99.221,14.807 -149.357,17.793c-0.11,-1.833 -0.293,-3.661 -0.552,-5.479c49.727,-7.06 99.697,-11.165 149.909,-12.314Zm-4.841,-28.699c-47.811,15.386 -96.362,27.899 -145.653,37.541c-0.353,-1.802 -0.779,-3.589 -1.277,-5.356c48.342,-13.625 97.319,-24.353 146.93,-32.185Zm-8.623,-27.798c-45.334,21.621 -91.784,40.494 -139.35,56.62c-0.589,-1.739 -1.25,-3.453 -1.979,-5.138c46.095,-19.947 93.204,-37.107 141.329,-51.482Zm-12.251,-26.4c-42.048,27.47 -85.567,52.366 -130.56,74.688c-0.816,-1.645 -1.699,-3.256 -2.646,-4.829c43.025,-25.912 87.427,-49.199 133.206,-69.859Zm-15.661,-24.532c-38.011,32.829 -77.824,63.304 -119.44,91.424c-1.028,-1.522 -2.117,-3.001 -3.266,-4.433c39.187,-31.416 80.089,-60.413 122.706,-86.991Zm-18.791,-22.226c-33.295,37.603 -68.692,73.112 -106.188,106.528c-1.222,-1.371 -2.499,-2.691 -3.828,-3.958c34.65,-36.359 71.322,-70.549 110.016,-102.57Zm-21.585,-19.523c-27.987,41.706 -58.334,81.616 -91.042,119.731c-1.394,-1.196 -2.835,-2.334 -4.322,-3.412c29.495,-40.653 61.283,-79.426 95.364,-116.319Zm-23.995,-16.471c-22.178,45.063 -46.935,88.662 -74.271,130.797c-1.541,-0.999 -3.121,-1.936 -4.738,-2.806c23.813,-44.222 50.149,-86.885 79.009,-127.991Zm-25.976,-13.127c-15.974,47.618 -34.7,94.128 -56.176,139.53c-1.659,-0.785 -3.351,-1.502 -5.069,-2.15c17.706,-47.001 38.121,-92.794 61.245,-137.38Zm-27.494,-9.547c-9.485,49.322 -21.844,97.913 -37.077,145.772c-1.75,-0.557 -3.521,-1.042 -5.311,-1.454c11.284,-48.942 25.413,-97.048 42.388,-144.318Zm-28.522,-5.797c-2.826,50.146 -8.598,99.95 -17.316,149.413c-1.808,-0.318 -3.629,-0.563 -5.457,-0.734c4.66,-50.008 12.251,-99.568 22.773,-148.679Z" style="fill:#ff0;"/></g></svg>